# xmcd
#
# Track frame offsets:
#	150
#	16928
#	36333
#	57295
#	76900
#	95090
#	113778
#	130900
#	142950
#	169375
#	182500
#	200325
#	217565
#	234633
#	254715
#
# Disc length: 3647 seconds
#
# Revision: 1
# Processed by: cddbd v1.5.1PL0 Copyright (c) Steve Scherf et al.
# Submitted via: EasyCDDAExtractor 7.1.1.1
#
DISCID=cd0e3d0f
DTITLE=Boyz II Man - Flying Hits 5
DYEAR=1997
DGENRE=Slow Rock
TTITLE0=When A Men Loves A Woman
TTITLE1=Missing You Now
TTITLE2=Loves Is A Wonderful Thing
TTITLE3=Time, Love And Tenderness
TTITLE4=To Love Somebody
TTITLE5=From Now On
TTITLE6=When I'm Back On My Feet Again
TTITLE7=In The Still Of The Nite
TTITLE8=End Of The Road
TTITLE9=It's So Hard To Say Goodbye To Yesterday
TTITLE10=Motownphilly
TTITLE11=Uhh Aah
TTITLE12=How Can We Be Lovers
TTITLE13=Seoul Provider
TTITLE14=How Am I Supported To Live Without You
EXTD=
EXTT0=
EXTT1=
EXTT2=
EXTT3=
EXTT4=
EXTT5=
EXTT6=
EXTT7=
EXTT8=
EXTT9=
EXTT10=
EXTT11=
EXTT12=
EXTT13=
EXTT14=
PLAYORDER=
